<svg width="38" height="38" viewBox="0 0 38 38" fill="none" xmlns="http://www.w3.org/2000/svg">
<path d="M30.7958 6.42834H24.1775V5.63667C24.1775 5.00678 23.9273 4.40269 23.4819 3.95729C23.0365 3.5119 22.4324 3.26167 21.8025 3.26167H16.1975C15.5676 3.26167 14.9635 3.5119 14.5181 3.95729C14.0727 4.40269 13.8225 5.00678 13.8225 5.63667V6.42834H7.20414C6.99418 6.42834 6.79282 6.51175 6.64435 6.66021C6.49588 6.80868 6.41248 7.01004 6.41248 7.22001C6.41248 7.42997 6.49588 7.63133 6.64435 7.7798C6.79282 7.92827 6.99418 8.01167 7.20414 8.01167H8.34414L9.00914 30.8908C9.03521 31.9223 9.46408 32.9025 10.2039 33.6216C10.9437 34.3407 11.9357 34.7416 12.9675 34.7383H25.0325C26.0642 34.7416 27.0562 34.3407 27.796 33.6216C28.5359 32.9025 28.9647 31.9223 28.9908 30.8908L29.6558 8.01167H30.7958C31.0058 8.01167 31.2071 7.92827 31.3556 7.7798C31.5041 7.63133 31.5875 7.42997 31.5875 7.22001C31.5875 7.01004 31.5041 6.80868 31.3556 6.66021C31.2071 6.51175 31.0058 6.42834 30.7958 6.42834ZM15.4058 5.63667C15.4058 5.42671 15.4892 5.22535 15.6377 5.07688C15.7861 4.92841 15.9875 4.84501 16.1975 4.84501H21.8025C22.0124 4.84501 22.2138 4.92841 22.3623 5.07688C22.5107 5.22535 22.5941 5.42671 22.5941 5.63667V6.42834H15.4058V5.63667ZM27.4075 30.8433C27.391 31.4622 27.1335 32.0501 26.6899 32.4819C26.2462 32.9137 25.6515 33.1552 25.0325 33.155H12.9675C12.3484 33.1552 11.7537 32.9137 11.3101 32.4819C10.8665 32.0501 10.609 31.4622 10.5925 30.8433L9.91164 8.01167H28.0883L27.4075 30.8433Z" fill="black"/>
<path d="M13.2604 12.6667C13.2604 12.4567 13.3438 12.2553 13.4922 12.1069C13.6407 11.9584 13.8421 11.875 14.052 11.875C14.262 11.875 14.4634 11.9584 14.6118 12.1069C14.7603 12.2553 14.8437 12.4567 14.8437 12.6667L15.2395 28.5C15.2395 28.71 15.1561 28.9113 15.0077 29.0598C14.8592 29.2083 14.6578 29.2917 14.4479 29.2917C14.2379 29.2917 14.0365 29.2083 13.8881 29.0598C13.7396 28.9113 13.6562 28.71 13.6562 28.5L13.2604 12.6667ZM24.7395 12.6777C24.7395 12.4678 24.6561 12.2664 24.5077 12.118C24.3592 11.9695 24.1578 11.8861 23.9479 11.8861C23.7379 11.8861 23.5365 11.9695 23.3881 12.118C23.2396 12.2664 23.1562 12.4678 23.1562 12.6777L22.7604 28.5111C22.7604 28.721 22.8438 28.9224 22.9922 29.0709C23.1407 29.2193 23.3421 29.3027 23.552 29.3027C23.762 29.3027 23.9634 29.2193 24.1118 29.0709C24.2603 28.9224 24.3437 28.721 24.3437 28.5111L24.7395 12.6777Z" fill="black"/>
</svg>
