<svg width="56" height="56" viewBox="0 0 56 56" fill="none" xmlns="http://www.w3.org/2000/svg">
<path d="M9.33334 42C8.67223 42 8.11845 41.776 7.67201 41.328C7.22556 40.88 7.00156 40.3262 7.00001 39.6667C6.99845 39.0071 7.22245 38.4533 7.67201 38.0053C8.12156 37.5573 8.67534 37.3333 9.33334 37.3333H46.6667C47.3278 37.3333 47.8823 37.5573 48.3303 38.0053C48.7783 38.4533 49.0016 39.0071 49 39.6667C48.9985 40.3262 48.7745 40.8808 48.328 41.3303C47.8816 41.7799 47.3278 42.0031 46.6667 42H9.33334ZM9.33334 30.3333C8.67223 30.3333 8.11845 30.1093 7.67201 29.6613C7.22556 29.2133 7.00156 28.6596 7.00001 28C6.99845 27.3404 7.22245 26.7867 7.67201 26.3387C8.12156 25.8907 8.67534 25.6667 9.33334 25.6667H46.6667C47.3278 25.6667 47.8823 25.8907 48.3303 26.3387C48.7783 26.7867 49.0016 27.3404 49 28C48.9985 28.6596 48.7745 29.2141 48.328 29.6637C47.8816 30.1132 47.3278 30.3364 46.6667 30.3333H9.33334ZM9.33334 18.6667C8.67223 18.6667 8.11845 18.4427 7.67201 17.9947C7.22556 17.5467 7.00156 16.9929 7.00001 16.3333C6.99845 15.6738 7.22245 15.12 7.67201 14.672C8.12156 14.224 8.67534 14 9.33334 14H46.6667C47.3278 14 47.8823 14.224 48.3303 14.672C48.7783 15.12 49.0016 15.6738 49 16.3333C48.9985 16.9929 48.7745 17.5474 48.328 17.997C47.8816 18.4466 47.3278 18.6698 46.6667 18.6667H9.33334Z" fill="black"/>
</svg>
